<svg width="36" height="36" viewBox="0 0 36 36" fill="none" xmlns="http://www.w3.org/2000/svg">
<path d="M28.4496 1.30544C24.9681 4.78899 21.4805 8.27315 18.0027 11.7573C14.5188 8.27498 11.0348 4.79082 7.5497 1.30544C3.51844 -2.72357 -2.72776 3.52501 1.30167 7.55401C4.78438 11.0345 8.27013 14.5205 11.7486 17.9998C8.26769 21.4821 4.78255 24.9675 1.30167 28.4517C-2.72776 32.4795 3.52149 38.7262 7.5497 34.6996C11.0324 31.2155 14.5163 27.7319 18.0027 24.2478C21.4866 27.7319 24.9681 31.2143 28.4496 34.6996C32.4796 38.7268 38.7264 32.4795 34.7 28.4523C31.2155 24.9681 27.7316 21.4858 24.247 18.0004C27.7322 14.5169 31.2161 11.0327 34.7 7.54853C38.7264 3.52075 32.4796 -2.72783 28.4496 1.30117" fill="#83C62F"/>
</svg>
