<svg width="61" height="64" viewBox="0 0 61 64" fill="none" xmlns="http://www.w3.org/2000/svg">
<g filter="url(#filter0_d)">
<path d="M52.7555 13.7131L46.4112 7.3748C45.9637 6.92531 45.4318 6.56866 44.846 6.32536C44.2602 6.08205 43.6322 5.95688 42.9979 5.95703C41.7052 5.95703 40.4899 6.46338 39.5785 7.3748L32.7518 14.2016C32.3023 14.6491 31.9456 15.181 31.7023 15.7668C31.459 16.3526 31.3338 16.9806 31.334 17.6149C31.334 18.9076 31.8403 20.1229 32.7518 21.0343L37.7438 26.0263C36.5752 28.6019 34.9506 30.9449 32.9483 32.9424C30.9511 34.9495 28.6082 36.5801 26.0322 37.7557L21.0402 32.7637C20.5927 32.3142 20.0608 31.9575 19.475 31.7142C18.8892 31.4709 18.2612 31.3457 17.6269 31.3459C16.3342 31.3459 15.1189 31.8522 14.2075 32.7637L7.37481 39.5845C6.92476 40.0328 6.56781 40.5657 6.32449 41.1526C6.08117 41.7394 5.95629 42.3685 5.95703 43.0038C5.95703 44.2965 6.46338 45.5117 7.37481 46.4231L13.7071 52.7555C15.1606 54.2149 17.1682 55.043 19.2293 55.043C19.6642 55.043 20.0812 55.0072 20.4922 54.9357C28.5223 53.6133 36.4868 49.3421 42.9145 42.9204C49.3361 36.5047 53.6014 28.5461 54.9417 20.4922C55.3468 18.0319 54.5307 15.5002 52.7555 13.7131Z" fill="#FFFCFC"/>
</g>
<defs>
<filter id="filter0_d" x="-4" y="0" width="69" height="69" filterUnits="userSpaceOnUse" color-interpolation-filters="sRGB">
<feFlood flood-opacity="0" result="BackgroundImageFix"/>
<feColorMatrix in="SourceAlpha" type="matrix" values="0 0 0 0 0 0 0 0 0 0 0 0 0 0 0 0 0 0 127 0"/>
<feOffset dy="4"/>
<feGaussianBlur stdDeviation="2"/>
<feColorMatrix type="matrix" values="0 0 0 0 0 0 0 0 0 0 0 0 0 0 0 0 0 0 0.25 0"/>
<feBlend mode="normal" in2="BackgroundImageFix" result="effect1_dropShadow"/>
<feBlend mode="normal" in="SourceGraphic" in2="effect1_dropShadow" result="shape"/>
</filter>
</defs>
</svg>
