<svg width="61" height="61" viewBox="0 0 61 61" fill="none" xmlns="http://www.w3.org/2000/svg">
<g clip-path="url(#clip0)">
<g filter="url(#filter0_d)">
<path d="M57.95 44.225V16.775C57.95 14.2435 55.9065 12.2 53.375 12.2H10.6445C8.113 12.2 6.0695 14.2435 6.0695 16.775V44.225C6.0695 46.7565 8.113 48.8 10.6445 48.8H53.375C55.9065 48.8 57.95 46.7565 57.95 44.225ZM53.9545 16.4395C54.961 17.446 54.412 18.483 53.863 19.0015L41.48 30.3475L53.375 42.7305C53.741 43.1575 53.985 43.8285 53.558 44.286C53.1615 44.774 52.2465 44.7434 51.85 44.4384L38.5215 33.062L31.9945 39.0095L25.498 33.062L12.1695 44.4384C11.773 44.7434 10.858 44.774 10.4615 44.286C10.0345 43.8285 10.2785 43.1575 10.6445 42.7305L22.5395 30.3475L10.1565 19.0015C9.6075 18.483 9.0585 17.446 10.065 16.4395C11.0715 15.433 12.1085 15.921 12.9625 16.653L31.9945 32.025L51.057 16.653C51.911 15.921 52.948 15.433 53.9545 16.4395V16.4395Z" fill="white"/>
<path d="M54.2008 19.3701L54.2008 19.3701L54.2063 19.365C54.5307 19.0586 54.8797 18.579 54.9843 17.9911C55.0949 17.3699 54.9192 16.697 54.3081 16.0859C53.6992 15.477 53.0269 15.2833 52.3608 15.402C51.7394 15.5128 51.1858 15.8849 50.7374 16.2684L31.9948 31.3824L13.2822 16.2685C12.8338 15.885 12.2802 15.5128 11.6587 15.402C10.9926 15.2833 10.3203 15.477 9.71145 16.0859C9.10031 16.697 8.92463 17.3699 9.03518 17.9911C9.13981 18.579 9.48878 19.0586 9.81319 19.365L9.81315 19.365L9.81872 19.3701L21.8243 30.3703L10.2839 42.3841L10.2741 42.3943L10.2649 42.4051C10.0398 42.6677 9.83809 43.0193 9.76458 43.4026C9.68937 43.7948 9.74791 44.2454 10.0844 44.6146C10.4046 44.9984 10.8868 45.1402 11.2923 45.159C11.6987 45.1779 12.1552 45.0803 12.4744 44.8348L12.4844 44.827L12.4941 44.8188L25.4864 33.7292L31.6569 39.3782L31.9937 39.6866L32.3313 39.379L38.5323 33.7285L51.5254 44.8188L51.5351 44.827L51.5452 44.8348C51.8643 45.0803 52.3208 45.1779 52.7272 45.159C53.1327 45.1402 53.6149 44.9984 53.9351 44.6146C54.2716 44.2454 54.3301 43.7948 54.2549 43.4026C54.1814 43.0193 53.9797 42.6677 53.7546 42.4051L53.7454 42.3943L53.7356 42.3841L42.1952 30.3703L54.2008 19.3701ZM57.45 16.775V44.2249C57.45 46.4803 55.6304 48.2999 53.375 48.2999H10.6445C8.38915 48.2999 6.5695 46.4803 6.5695 44.2249V16.775C6.5695 14.5196 8.38915 12.7 10.6445 12.7H53.375C55.6304 12.7 57.45 14.5196 57.45 16.775Z" stroke="white"/>
</g>
</g>
<defs>
<filter id="filter0_d" x="2.0695" y="12.2" width="59.8805" height="44.6" filterUnits="userSpaceOnUse" color-interpolation-filters="sRGB">
<feFlood flood-opacity="0" result="BackgroundImageFix"/>
<feColorMatrix in="SourceAlpha" type="matrix" values="0 0 0 0 0 0 0 0 0 0 0 0 0 0 0 0 0 0 127 0"/>
<feOffset dy="4"/>
<feGaussianBlur stdDeviation="2"/>
<feColorMatrix type="matrix" values="0 0 0 0 0 0 0 0 0 0 0 0 0 0 0 0 0 0 0.25 0"/>
<feBlend mode="normal" in2="BackgroundImageFix" result="effect1_dropShadow"/>
<feBlend mode="normal" in="SourceGraphic" in2="effect1_dropShadow" result="shape"/>
</filter>
<clipPath id="clip0">
<rect width="61" height="61" fill="white"/>
</clipPath>
</defs>
</svg>
