<svg width="61" height="63" viewBox="0 0 61 63" fill="none" xmlns="http://www.w3.org/2000/svg">
<g filter="url(#filter0_d)">
<path d="M52.4219 6.67188H8.57812C7.52373 6.67188 6.67188 7.52373 6.67188 8.57812V52.4219C6.67188 53.4763 7.52373 54.3281 8.57812 54.3281H52.4219C53.4763 54.3281 54.3281 53.4763 54.3281 52.4219V8.57812C54.3281 7.52373 53.4763 6.67188 52.4219 6.67188ZM46.9176 20.5815H43.111C40.1266 20.5815 39.5487 21.9993 39.5487 24.0843V28.6771H46.6733L45.744 35.8673H39.5487V54.3281H32.1203V35.8732H25.9071V28.6771H32.1203V23.3754C32.1203 17.2218 35.8792 13.868 41.3716 13.868C44.0046 13.868 46.2623 14.0646 46.9235 14.1539V20.5815H46.9176Z" fill="#FAFAFA"/>
</g>
<defs>
<filter id="filter0_d" x="-4" y="0" width="69" height="69" filterUnits="userSpaceOnUse" color-interpolation-filters="sRGB">
<feFlood flood-opacity="0" result="BackgroundImageFix"/>
<feColorMatrix in="SourceAlpha" type="matrix" values="0 0 0 0 0 0 0 0 0 0 0 0 0 0 0 0 0 0 127 0"/>
<feOffset dy="4"/>
<feGaussianBlur stdDeviation="2"/>
<feColorMatrix type="matrix" values="0 0 0 0 0 0 0 0 0 0 0 0 0 0 0 0 0 0 0.25 0"/>
<feBlend mode="normal" in2="BackgroundImageFix" result="effect1_dropShadow"/>
<feBlend mode="normal" in="SourceGraphic" in2="effect1_dropShadow" result="shape"/>
</filter>
</defs>
</svg>
