<svg width="271" height="69" viewBox="0 0 271 69" fill="none" xmlns="http://www.w3.org/2000/svg">
<g clip-path="url(#clip0)">
<path d="M226.261 18.9528C230.376 15.3503 229.743 7.8178 228.984 7.05691C228.559 6.63214 227.562 8.66875 224.907 10.3023C224.812 11.4531 224.636 12.5239 224.399 13.5327C224.269 12.6665 224.118 11.7797 223.941 10.867C222.776 11.4955 221.391 12.0587 219.88 12.5593C219.247 14.2744 218.462 15.8368 217.655 17.3773C217.624 16.0293 217.586 14.6753 217.519 13.291C215.129 13.9928 212.699 14.6576 210.854 15.5374C209.603 16.1309 208.653 17.2115 208.221 18.5265C207.807 19.79 207.482 21.1421 207.292 22.63C207.004 21.2129 206.778 19.8578 206.6 18.5498C203.503 21.8175 204.274 27.2134 205.742 29.3915C205.793 30.7627 206.059 31.8518 206.246 32.3377C206.719 33.8914 207.274 35.2698 208.422 36.9999C208.422 36.9984 207.765 32.0515 207.765 32.0515C207.69 31.6728 207.648 31.0661 207.657 30.3172C209.063 29.9178 210.886 27.8256 214.202 26.1511C212.762 25.8411 211.37 25.5782 210.038 25.3769C211.563 25.021 213.26 24.8359 215.06 24.7551C216.447 24.6934 217.822 24.3557 219.078 23.761C221.214 22.7387 223.566 21.4342 225.448 19.744C224.508 19.4937 223.556 19.2338 222.597 18.9653C223.848 18.9903 225.075 18.9922 226.261 18.9528Z" fill="#82D11E" fill-opacity="0.68"/>
</g>
<path d="M58.6215 66.176C56.8615 66.176 55.6455 65.824 54.9735 65.12C54.3015 64.448 53.9495 63.568 53.9175 62.48C53.9175 61.552 54.0935 60.448 54.4455 59.168C54.8295 57.856 55.2135 56.608 55.5975 55.424C56.6215 52.384 57.6935 49.424 58.8135 46.544C59.9655 43.664 61.0855 40.944 62.1735 38.384C63.2935 35.792 64.2855 33.44 65.1495 31.328C62.9735 31.36 61.0855 31.424 59.4855 31.52C57.9175 31.616 56.4775 31.744 55.1655 31.904C53.8535 32.032 52.4935 32.224 51.0855 32.48C51.2455 31.136 51.8695 30.112 52.9575 29.408C54.0775 28.672 55.5655 28.16 57.4215 27.872C59.2775 27.584 61.4055 27.44 63.8055 27.44C65.6935 27.44 67.4055 27.504 68.9415 27.632C70.5095 27.728 72.0135 27.856 73.4535 28.016C75.4695 28.208 77.0695 28.336 78.2535 28.4C79.4695 28.464 80.3335 28.496 80.8455 28.496C79.8855 29.392 78.6695 30.048 77.1975 30.464C75.7575 30.848 74.2375 31.088 72.6375 31.184C71.0375 31.28 69.5175 31.328 68.0775 31.328C66.5415 35.104 65.1335 39.024 63.8535 43.088C62.5735 47.152 61.3895 51.168 60.3015 55.136C59.8855 56.672 59.5335 57.984 59.2455 59.072C58.9895 60.128 58.7975 61.104 58.6695 62C58.5415 62.864 58.4775 63.792 58.4775 64.784C58.4775 64.944 58.4775 65.12 58.4775 65.312C58.5095 65.536 58.5575 65.824 58.6215 66.176ZM71.2305 63.536C69.7905 63.536 68.7985 63.056 68.2545 62.096C67.7425 61.168 67.4865 60.144 67.4865 59.024C67.4865 58 67.6465 56.96 67.9665 55.904C68.2865 54.816 68.7185 53.808 69.2625 52.88C69.8385 51.952 70.4625 51.216 71.1345 50.672C71.8385 50.096 72.5425 49.808 73.2465 49.808C73.4705 49.808 73.7265 49.856 74.0145 49.952C74.3345 50.016 74.5585 50.128 74.6865 50.288C74.1745 50.928 73.6465 51.76 73.1025 52.784C72.5905 53.776 72.1585 54.816 71.8065 55.904C71.4865 56.992 71.3265 57.984 71.3265 58.88C71.3265 59.52 71.4385 60.048 71.6625 60.464C71.9185 60.88 72.3505 61.088 72.9585 61.088C73.5665 61.088 74.2865 60.752 75.1185 60.08C75.9825 59.376 76.7985 58.576 77.5665 57.68C76.5425 56.752 75.8065 55.744 75.3585 54.656C74.9105 53.536 74.6865 52.192 74.6865 50.624C74.6865 49.952 74.8465 49.184 75.1665 48.32C75.5185 47.456 76.0625 46.704 76.7985 46.064C77.5665 45.424 78.5905 45.104 79.8705 45.104C81.2465 45.104 82.2065 45.488 82.7505 46.256C83.3265 47.024 83.6145 47.936 83.6145 48.992C83.6145 50.176 83.2945 51.504 82.6545 52.976C82.0465 54.448 81.3105 55.84 80.4465 57.152C80.8305 57.344 81.2785 57.44 81.7905 57.44C82.2705 57.44 82.8465 57.328 83.5185 57.104C84.1905 56.88 84.8465 56.512 85.4865 56C86.1265 55.456 86.6385 54.736 87.0225 53.84L87.8865 54.464C87.1825 56.096 86.2385 57.296 85.0545 58.064C83.9025 58.8 82.7665 59.168 81.6465 59.168C81.2305 59.168 80.8145 59.136 80.3985 59.072C79.9825 58.976 79.5985 58.864 79.2465 58.736C78.1585 60.016 76.9105 61.136 75.5025 62.096C74.0945 63.056 72.6705 63.536 71.2305 63.536ZM78.8145 56.144C79.5825 55.024 80.2385 53.824 80.7825 52.544C81.3265 51.264 81.5985 50.08 81.5985 48.992C81.5985 47.584 81.1505 46.88 80.2545 46.88C79.6465 46.88 79.0225 47.312 78.3825 48.176C77.7425 49.04 77.4225 50.128 77.4225 51.44C77.4225 52.112 77.5345 52.928 77.7585 53.888C78.0145 54.848 78.3665 55.6 78.8145 56.144ZM89.2339 63.44C88.6259 63.44 88.0019 63.28 87.3619 62.96C86.7539 62.672 86.2419 62.208 85.8259 61.568C85.3779 60.928 85.1539 60.112 85.1539 59.12C85.1539 58.064 85.4099 56.88 85.9219 55.568C86.4339 54.256 87.1219 52.944 87.9859 51.632C88.8819 50.32 89.9059 49.12 91.0579 48.032C92.2419 46.944 93.4899 46.064 94.8019 45.392C96.1139 44.72 97.4419 44.384 98.7859 44.384C99.5219 44.384 100.098 44.512 100.514 44.768C100.93 44.992 101.138 45.376 101.138 45.92C101.138 46.08 101.106 46.272 101.042 46.496C100.978 46.688 100.818 46.864 100.562 47.024C100.434 46.832 100.21 46.704 99.8899 46.64C99.5699 46.544 99.2339 46.496 98.8819 46.496C97.8259 46.496 96.8179 46.8 95.8579 47.408C94.8979 47.984 94.0179 48.736 93.2179 49.664C92.4179 50.592 91.7139 51.6 91.1059 52.688C90.5299 53.776 90.0819 54.832 89.7619 55.856C89.4419 56.848 89.2819 57.712 89.2819 58.448C89.2819 59.792 89.7939 60.464 90.8179 60.464C91.6819 60.464 92.7059 59.968 93.8899 58.976C95.1059 57.952 96.3379 56.496 97.5859 54.608C98.8659 52.688 100.018 50.4 101.042 47.744C101.746 45.92 102.482 44.064 103.25 42.176C104.018 40.256 104.786 38.416 105.554 36.656C106.322 34.896 107.074 33.328 107.81 31.952C108.578 30.576 109.298 29.488 109.97 28.688C110.674 27.856 111.314 27.44 111.89 27.44C112.242 27.44 112.546 27.584 112.802 27.872C113.09 28.128 113.234 28.464 113.234 28.88C113.234 29.424 112.962 30.304 112.418 31.52C111.906 32.704 111.234 34.128 110.402 35.792C109.602 37.456 108.722 39.264 107.762 41.216C106.834 43.136 105.954 45.12 105.122 47.168C104.322 49.184 103.65 51.184 103.106 53.168C102.594 55.12 102.338 56.96 102.338 58.688C102.338 59.456 102.402 59.984 102.53 60.272C102.69 60.528 102.946 60.656 103.298 60.656C104.322 60.656 105.538 60.048 106.946 58.832C108.386 57.584 109.65 55.824 110.738 53.552L111.65 54.32C110.946 56.08 110.05 57.632 108.962 58.976C107.874 60.32 106.706 61.36 105.458 62.096C104.21 62.864 102.978 63.248 101.762 63.248C100.45 63.248 99.5379 62.832 99.0259 62C98.5139 61.168 98.2579 60.192 98.2579 59.072C98.2579 58.56 98.2899 58.048 98.3539 57.536C98.4499 56.992 98.5459 56.464 98.6419 55.952C97.1379 58.128 95.5379 59.92 93.8419 61.328C92.1779 62.736 90.6419 63.44 89.2339 63.44ZM113.292 63.536C111.82 63.536 110.732 63.088 110.028 62.192C109.324 61.328 108.972 60.256 108.972 58.976C108.972 57.312 109.26 55.76 109.836 54.32C110.444 52.88 111.196 51.584 112.092 50.432C113.02 49.248 114.012 48.24 115.068 47.408C116.124 46.576 117.116 45.936 118.044 45.488C119.004 45.04 119.788 44.816 120.396 44.816C120.556 44.816 120.78 44.848 121.068 44.912C121.356 44.976 121.564 45.136 121.692 45.392C121.788 45.328 121.884 45.28 121.98 45.248C122.108 45.216 122.236 45.2 122.364 45.2C123.26 45.2 123.836 45.456 124.092 45.968C124.38 46.48 124.524 47.04 124.524 47.648C124.524 48.192 124.364 48.816 124.044 49.52C123.756 50.224 123.452 51.008 123.132 51.872C122.844 52.704 122.7 53.664 122.7 54.752C122.7 55.328 122.86 55.776 123.18 56.096C123.532 56.384 123.932 56.528 124.38 56.528C125.628 56.528 126.652 56.256 127.452 55.712C128.252 55.136 128.908 54.384 129.42 53.456C129.932 52.528 130.364 51.52 130.716 50.432C131.068 49.312 131.404 48.208 131.724 47.12C131.436 46.768 131.292 46.368 131.292 45.92C131.292 45.216 131.436 44.608 131.724 44.096C132.012 43.552 132.332 43.136 132.684 42.848C133.068 42.528 133.372 42.368 133.596 42.368C134.108 42.368 134.412 42.56 134.508 42.944C134.604 43.328 134.652 43.632 134.652 43.856C134.652 44.016 134.556 44.304 134.364 44.72C134.204 45.136 134.124 45.424 134.124 45.584C134.124 45.904 134.38 46.24 134.892 46.592C135.436 46.912 136.044 47.296 136.716 47.744C137.388 48.192 137.98 48.768 138.492 49.472C139.036 50.144 139.308 50.992 139.308 52.016C139.308 52.976 139.116 53.936 138.732 54.896C138.348 55.856 137.964 56.752 137.58 57.584C137.196 58.416 137.004 59.136 137.004 59.744C137.004 60.224 137.116 60.544 137.34 60.704C137.596 60.832 137.884 60.896 138.204 60.896C138.94 60.896 139.708 60.672 140.508 60.224C141.34 59.744 142.14 59.136 142.908 58.4C143.676 57.664 144.364 56.896 144.972 56.096C145.58 55.264 146.028 54.512 146.316 53.84L147.276 54.512C146.636 55.888 145.788 57.248 144.732 58.592C143.676 59.936 142.476 61.056 141.132 61.952C139.82 62.848 138.444 63.296 137.004 63.296C135.82 63.296 134.844 62.976 134.076 62.336C133.34 61.696 132.972 60.88 132.972 59.888C132.972 58.96 133.18 57.984 133.596 56.96C134.012 55.936 134.428 54.944 134.844 53.984C135.26 53.024 135.468 52.16 135.468 51.392C135.468 50.56 135.196 49.888 134.652 49.376C134.108 48.832 133.532 48.4 132.924 48.08C132.54 49.232 132.108 50.416 131.628 51.632C131.18 52.848 130.62 53.968 129.948 54.992C129.276 55.984 128.428 56.8 127.404 57.44C126.38 58.048 125.1 58.352 123.564 58.352C123.148 58.352 122.668 58.288 122.124 58.16C121.612 58.032 121.18 57.904 120.828 57.776C119.964 59.472 118.828 60.864 117.42 61.952C116.044 63.008 114.668 63.536 113.292 63.536ZM114.204 61.136C114.62 61.136 115.132 60.928 115.74 60.512C116.38 60.096 117.004 59.552 117.612 58.88C118.252 58.176 118.748 57.44 119.1 56.672C118.428 55.776 118.092 54.432 118.092 52.64C118.092 52.256 118.14 51.744 118.236 51.104C118.364 50.464 118.524 49.808 118.716 49.136C118.94 48.432 119.196 47.84 119.484 47.36C118.396 48.384 117.324 49.584 116.268 50.96C115.244 52.304 114.396 53.664 113.724 55.04C113.052 56.416 112.716 57.68 112.716 58.832C112.716 59.696 112.844 60.304 113.1 60.656C113.388 60.976 113.756 61.136 114.204 61.136ZM148.48 63.536C147.041 63.536 146.049 63.056 145.505 62.096C144.992 61.168 144.736 60.144 144.736 59.024C144.736 58 144.896 56.96 145.216 55.904C145.537 54.816 145.969 53.808 146.513 52.88C147.089 51.952 147.713 51.216 148.385 50.672C149.089 50.096 149.793 49.808 150.497 49.808C150.721 49.808 150.977 49.856 151.265 49.952C151.585 50.016 151.809 50.128 151.937 50.288C151.425 50.928 150.897 51.76 150.353 52.784C149.841 53.776 149.409 54.816 149.057 55.904C148.737 56.992 148.577 57.984 148.577 58.88C148.577 59.52 148.689 60.048 148.913 60.464C149.169 60.88 149.601 61.088 150.209 61.088C150.817 61.088 151.537 60.752 152.368 60.08C153.233 59.376 154.049 58.576 154.817 57.68C153.793 56.752 153.057 55.744 152.609 54.656C152.161 53.536 151.937 52.192 151.937 50.624C151.937 49.952 152.097 49.184 152.417 48.32C152.769 47.456 153.313 46.704 154.049 46.064C154.817 45.424 155.841 45.104 157.121 45.104C158.497 45.104 159.457 45.488 160.001 46.256C160.577 47.024 160.865 47.936 160.865 48.992C160.865 50.176 160.545 51.504 159.905 52.976C159.297 54.448 158.561 55.84 157.697 57.152C158.081 57.344 158.529 57.44 159.041 57.44C159.521 57.44 160.097 57.328 160.769 57.104C161.441 56.88 162.097 56.512 162.737 56C163.377 55.456 163.889 54.736 164.273 53.84L165.137 54.464C164.433 56.096 163.489 57.296 162.305 58.064C161.153 58.8 160.017 59.168 158.897 59.168C158.481 59.168 158.065 59.136 157.648 59.072C157.233 58.976 156.849 58.864 156.497 58.736C155.409 60.016 154.161 61.136 152.753 62.096C151.345 63.056 149.921 63.536 148.48 63.536ZM156.065 56.144C156.833 55.024 157.489 53.824 158.033 52.544C158.577 51.264 158.849 50.08 158.849 48.992C158.849 47.584 158.401 46.88 157.505 46.88C156.897 46.88 156.273 47.312 155.633 48.176C154.993 49.04 154.673 50.128 154.673 51.44C154.673 52.112 154.785 52.928 155.009 53.888C155.265 54.848 155.617 55.6 156.065 56.144ZM166.724 63.872C165.54 63.872 164.708 63.328 164.228 62.24C163.78 61.184 163.556 59.808 163.556 58.112C163.556 57.76 163.572 57.136 163.604 56.24C163.636 55.312 163.684 54.032 163.748 52.4C163.78 51.44 163.876 50.784 164.036 50.432C164.228 50.08 164.74 49.904 165.572 49.904C166.34 49.904 166.788 50.064 166.916 50.384C167.076 50.672 167.156 51.28 167.156 52.208C167.156 53.168 167.108 54.192 167.012 55.28C166.948 56.368 166.916 57.424 166.916 58.448C166.916 59.44 166.964 60.176 167.06 60.656C167.156 61.104 167.396 61.328 167.78 61.328C168.356 61.328 168.98 61.024 169.652 60.416C170.324 59.776 170.996 58.976 171.668 58.016C172.372 57.024 173.028 55.968 173.636 54.848C174.276 53.696 174.836 52.592 175.316 51.536C175.38 49.36 175.636 47.904 176.084 47.168C176.532 46.432 177.108 46.064 177.812 46.064C178.612 46.064 179.156 46.32 179.444 46.832C179.732 47.344 179.876 47.792 179.876 48.176C179.876 48.656 179.748 49.088 179.492 49.472C179.236 49.856 178.98 50.384 178.724 51.056C178.468 51.728 178.34 52.752 178.34 54.128C178.34 54.576 178.372 55.072 178.436 55.616C178.532 56.128 178.724 56.576 179.012 56.96C179.332 57.312 179.796 57.488 180.404 57.488C181.044 57.488 181.652 57.232 182.228 56.72C182.836 56.176 183.476 55.248 184.148 53.936L184.676 54.368C183.94 56.128 183.108 57.36 182.18 58.064C181.284 58.768 180.42 59.12 179.588 59.12C178.532 59.12 177.668 58.704 176.996 57.872C176.356 57.008 175.86 55.936 175.508 54.656C174.74 56.096 173.86 57.52 172.868 58.928C171.908 60.336 170.9 61.504 169.844 62.432C168.788 63.392 167.748 63.872 166.724 63.872ZM192.363 41.792C191.755 41.792 191.195 41.648 190.683 41.36C190.203 41.04 189.963 40.56 189.963 39.92C189.963 39.152 190.379 38.496 191.211 37.952C192.043 37.408 192.907 37.136 193.803 37.136C194.379 37.136 194.859 37.264 195.243 37.52C195.659 37.776 195.867 38.24 195.867 38.912C195.867 39.584 195.499 40.24 194.763 40.88C194.027 41.488 193.227 41.792 192.363 41.792ZM186.699 63.44C185.291 63.44 184.235 63.024 183.531 62.192C182.827 61.36 182.475 60.352 182.475 59.168C182.475 58.432 182.603 57.504 182.859 56.384C183.115 55.264 183.467 54.096 183.915 52.88C184.395 51.632 184.939 50.464 185.547 49.376C186.155 48.288 186.811 47.408 187.515 46.736C188.219 46.032 188.923 45.68 189.627 45.68C190.011 45.68 190.347 45.808 190.635 46.064C190.923 46.288 191.067 46.624 191.067 47.072C191.067 47.488 190.811 48.112 190.299 48.944C189.819 49.776 189.243 50.736 188.571 51.824C187.931 52.912 187.355 54.048 186.843 55.232C186.363 56.384 186.123 57.488 186.123 58.544C186.123 59.568 186.299 60.256 186.651 60.608C187.035 60.928 187.579 61.088 188.283 61.088C189.371 61.088 190.555 60.544 191.835 59.456C193.115 58.368 194.443 56.464 195.819 53.744L196.539 54.512C195.419 57.328 193.995 59.52 192.267 61.088C190.539 62.656 188.683 63.44 186.699 63.44ZM200.002 64.688C198.338 64.688 196.962 64.16 195.874 63.104C194.818 62.08 194.29 60.496 194.29 58.352C194.29 56.784 194.594 55.248 195.202 53.744C195.81 52.24 196.626 50.896 197.65 49.712C198.674 48.496 199.81 47.536 201.058 46.832C202.338 46.128 203.634 45.776 204.946 45.776C206.29 45.776 207.25 46.112 207.826 46.784C208.434 47.456 208.738 48.24 208.738 49.136C208.738 50.032 208.514 50.912 208.066 51.776C207.65 52.608 207.074 53.024 206.338 53.024C205.73 53.024 205.234 52.72 204.85 52.112C205.17 51.888 205.506 51.472 205.858 50.864C206.21 50.256 206.386 49.472 206.386 48.512C206.386 47.968 206.082 47.696 205.474 47.696C204.674 47.696 203.826 48.064 202.93 48.8C202.066 49.504 201.25 50.432 200.482 51.584C199.746 52.704 199.138 53.904 198.658 55.184C198.21 56.432 197.986 57.584 197.986 58.64C197.986 59.536 198.21 60.368 198.658 61.136C199.138 61.872 200.05 62.24 201.394 62.24C202.61 62.24 203.874 61.888 205.186 61.184C206.498 60.48 207.73 59.504 208.882 58.256C210.034 56.976 210.962 55.456 211.666 53.696L212.626 54.56C211.858 56.512 210.786 58.256 209.41 59.792C208.066 61.296 206.562 62.48 204.898 63.344C203.266 64.24 201.634 64.688 200.002 64.688Z" fill="#83C62F"/>
<path d="M101.138 12.03V15.915H107.942V18.645H101.138V24H97.7362V9.3H108.845V12.03H101.138ZM115.167 12.534C116.917 12.534 118.261 12.954 119.199 13.794C120.137 14.62 120.606 15.873 120.606 17.553V24H117.54V22.593C116.924 23.643 115.776 24.168 114.096 24.168C113.228 24.168 112.472 24.021 111.828 23.727C111.198 23.433 110.715 23.027 110.379 22.509C110.043 21.991 109.875 21.403 109.875 20.745C109.875 19.695 110.267 18.869 111.051 18.267C111.849 17.665 113.074 17.364 114.726 17.364H117.33C117.33 16.65 117.113 16.104 116.679 15.726C116.245 15.334 115.594 15.138 114.726 15.138C114.124 15.138 113.529 15.236 112.941 15.432C112.367 15.614 111.877 15.866 111.471 16.188L110.295 13.899C110.911 13.465 111.646 13.129 112.5 12.891C113.368 12.653 114.257 12.534 115.167 12.534ZM114.915 21.963C115.475 21.963 115.972 21.837 116.406 21.585C116.84 21.319 117.148 20.934 117.33 20.43V19.275H115.083C113.739 19.275 113.067 19.716 113.067 20.598C113.067 21.018 113.228 21.354 113.55 21.606C113.886 21.844 114.341 21.963 114.915 21.963ZM126.7 14.193C127.092 13.647 127.617 13.234 128.275 12.954C128.947 12.674 129.717 12.534 130.585 12.534V15.558C130.221 15.53 129.976 15.516 129.85 15.516C128.912 15.516 128.177 15.782 127.645 16.314C127.113 16.832 126.847 17.616 126.847 18.666V24H123.571V12.702H126.7V14.193ZM147.002 12.534C148.416 12.534 149.536 12.954 150.362 13.794C151.202 14.62 151.622 15.866 151.622 17.532V24H148.346V18.036C148.346 17.14 148.157 16.475 147.779 16.041C147.415 15.593 146.89 15.369 146.204 15.369C145.434 15.369 144.825 15.621 144.377 16.125C143.929 16.615 143.705 17.35 143.705 18.33V24H140.429V18.036C140.429 16.258 139.715 15.369 138.287 15.369C137.531 15.369 136.929 15.621 136.481 16.125C136.033 16.615 135.809 17.35 135.809 18.33V24H132.533V12.702H135.662V14.004C136.082 13.528 136.593 13.164 137.195 12.912C137.811 12.66 138.483 12.534 139.211 12.534C140.009 12.534 140.73 12.695 141.374 13.017C142.018 13.325 142.536 13.78 142.928 14.382C143.39 13.794 143.971 13.339 144.671 13.017C145.385 12.695 146.162 12.534 147.002 12.534ZM159.115 12.534C160.865 12.534 162.209 12.954 163.147 13.794C164.085 14.62 164.554 15.873 164.554 17.553V24H161.488V22.593C160.872 23.643 159.724 24.168 158.044 24.168C157.176 24.168 156.42 24.021 155.776 23.727C155.146 23.433 154.663 23.027 154.327 22.509C153.991 21.991 153.823 21.403 153.823 20.745C153.823 19.695 154.215 18.869 154.999 18.267C155.797 17.665 157.022 17.364 158.674 17.364H161.278C161.278 16.65 161.061 16.104 160.627 15.726C160.193 15.334 159.542 15.138 158.674 15.138C158.072 15.138 157.477 15.236 156.889 15.432C156.315 15.614 155.825 15.866 155.419 16.188L154.243 13.899C154.859 13.465 155.594 13.129 156.448 12.891C157.316 12.653 158.205 12.534 159.115 12.534ZM158.863 21.963C159.423 21.963 159.92 21.837 160.354 21.585C160.788 21.319 161.096 20.934 161.278 20.43V19.275H159.031C157.687 19.275 157.015 19.716 157.015 20.598C157.015 21.018 157.176 21.354 157.498 21.606C157.834 21.844 158.289 21.963 158.863 21.963Z" fill="#83C62F"/>
<defs>
<clipPath id="clip0">
<rect width="30" height="30" fill="white" transform="translate(202 7)"/>
</clipPath>
</defs>
</svg>
